<svg xmlns="http://www.w3.org/2000/svg" width="1200" height="390" viewBox="0 0 1200 390" role="img" aria-labelledby="title desc">
<title id="title">Still Working</title><desc id="desc">A quiet eye on the things you count on. Four suppliers flow into one useful decision.</desc>
<defs><pattern id="dots" width="22" height="22" patternUnits="userSpaceOnUse"><circle cx="1" cy="1" r="1" fill="#344b3d"/></pattern><linearGradient id="fade"><stop stop-color="#90ac75" stop-opacity="0"/><stop offset="1" stop-color="#c0d6a7"/></linearGradient></defs>
<rect width="1200" height="390" rx="24" fill="#15251f"/><rect x="680" y="0" width="520" height="390" fill="url(#dots)"/>
<g transform="translate(54 55)" fill="none" stroke="#c0d6a7" stroke-width="4" stroke-linecap="round" stroke-linejoin="round"><path d="M52 31a21 21 0 1 1-14-20"/><path d="m22 29 9 9 22-23"/></g>
<text x="135" y="100" fill="#e6e9dc" font-family="Arial,Helvetica,sans-serif" font-size="47" font-weight="600" letter-spacing="-2">still working<tspan fill="#c0d6a7">.</tspan></text>
<text x="62" y="188" fill="#e6e9dc" font-family="Georgia,serif" font-size="42" letter-spacing="-1">Your business moves.</text><text x="62" y="240" fill="#c0d6a7" font-family="Georgia,serif" font-size="42" letter-spacing="-1">Let the background stay quiet.</text>
<text x="64" y="320" fill="#a1b0a4" font-family="Arial,Helvetica,sans-serif" font-size="14" letter-spacing="1">REAL SUPPLIER HISTORY. ONE USEFUL NEXT STEP.</text>
<g fill="none" stroke="url(#fade)" stroke-width="1.6"><path d="M775 85C875 85 835 185 970 185"/><path d="M775 145C875 145 870 190 970 190"/><path d="M775 245C875 245 870 200 970 200"/><path d="M775 305C875 305 835 205 970 205"/></g>
<g font-family="Arial,Helvetica,sans-serif" font-size="12" fill="#a1b0a4"><text x="737" y="75">Stripe</text><text x="737" y="135">Square</text><text x="737" y="235">Xero</text><text x="737" y="295">ShipEngine</text></g>
<circle cx="1015" cy="195" r="86" fill="none" stroke="#344b3d"/><circle cx="1015" cy="195" r="68" fill="none" stroke="#344b3d" stroke-dasharray="3 6"/><circle cx="1015" cy="195" r="49" fill="#c0d6a7"/>
<g transform="translate(983 163)" fill="none" stroke="#255a43" stroke-width="4" stroke-linecap="round" stroke-linejoin="round"><path d="M52 31a21 21 0 1 1-14-20"/><path d="m22 29 9 9 22-23"/></g>
<circle cx="846" cy="100" r="4" fill="#c0d6a7"/><circle cx="882" cy="214" r="4" fill="#c0d6a7"/>
</svg>
